<svg width="29" height="29" viewBox="0 0 29 29" fill="none" xmlns="http://www.w3.org/2000/svg">
<path d="M21.5724 0.748276C24.1263 0.89758 26.4248 2.15684 27.6153 4.95825C28.8254 7.80288 28.2872 10.4491 26.2008 12.7103C24.7235 14.3074 23.1362 15.8064 21.5842 17.3348C20.9123 18.0027 19.8338 18.0223 19.2504 17.4094C18.661 16.7886 18.7239 15.936 19.4331 15.2249C20.9556 13.6965 22.4977 12.1897 24.0045 10.6475C26.2735 8.32544 25.2657 4.63214 22.1303 3.79918C20.8279 3.45342 19.5765 3.6931 18.5844 4.61642C16.9892 6.1016 15.4883 7.68108 13.899 9.16822C13.5611 9.48255 13.0051 9.75562 12.569 9.72811C11.4001 9.65543 10.8088 8.24097 11.6182 7.39819C13.3448 5.5761 15.1383 3.81861 16.9951 2.12934C18.1306 1.10778 19.6099 0.758098 21.5724 0.748276ZM0.748451 21.1852C0.760238 19.2325 1.43996 17.543 2.80924 16.1521C4.31996 14.6139 5.85425 13.0992 7.38658 11.5807C8.11346 10.8597 9.00732 10.8047 9.62418 11.4235C10.2646 12.0718 10.2017 12.8851 9.44344 13.6473C7.98576 15.1109 6.50255 16.5548 5.05862 18.0341C3.27287 19.8592 3.19821 22.3227 4.84252 23.9788C6.41807 25.5622 9.02107 25.57 10.6673 23.967C12.1623 22.5073 13.6181 21.0064 15.1111 19.5468C16.0069 18.6706 17.3683 18.983 17.606 20.1617C17.6905 20.586 17.5196 21.2245 17.2249 21.5369C15.6042 23.246 13.9835 24.9669 12.2174 26.5189C10.0564 28.4166 7.52213 28.731 4.87985 27.5797C2.32597 26.4678 0.754345 23.9611 0.748451 21.1852ZM20.5332 10.0464C20.4389 10.2232 20.3289 10.6082 20.0813 10.8597C17.107 13.879 14.1189 16.8847 11.1172 19.8768C10.4787 20.5153 9.57113 20.4721 8.97195 19.867C8.36688 19.2561 8.3826 18.4172 9.05643 17.7414C12.0032 14.7868 14.9618 11.838 17.9164 8.89319C18.3938 8.41581 18.9576 8.21543 19.6099 8.50029C20.1933 8.75175 20.49 9.21537 20.5332 10.0464Z" fill="black"/>
</svg>
